<svg data-v-0dd9719b="" version="1.0" xmlns="http://www.w3.org/2000/svg" xmlns:xlink="http://www.w3.org/1999/xlink" width="100%" height="100%" viewBox="0 0 340.000000 250.000000" preserveAspectRatio="xMidYMid meet" color-interpolation-filters="sRGB" style="margin: auto;"> <rect data-v-0dd9719b="" x="0" y="0" width="100%" height="100%" fill="#fff" fill-opacity="1" class="background"></rect> <rect data-v-0dd9719b="" x="0" y="0" width="100%" height="100%" fill="url(#watermark)" fill-opacity="1" class="watermarklayer"></rect> <g data-v-0dd9719b="" fill="#333" class="icon-text-wrapper icon-svg-group iconsvg" transform="translate(48.16999816894531,94.99699974060059)"><g class="iconsvg-imagesvg" transform="translate(0,0)"><g><rect fill="#333" fill-opacity="0" stroke-width="2" x="0" y="0" width="60" height="60.006000600060005" class="image-rect"></rect> <svg x="0" y="0" width="60" height="60.006000600060005" filtersec="colorsb8417281297" class="image-svg-svg primary" style="overflow: visible;"><svg xmlns="http://www.w3.org/2000/svg" viewBox="0.01964184083044529 -0.03000464104115963 99.9903564453125 100.00001525878906"><path d="M75.74 61.83H62.5a17.53 17.53 0 0 1-26.75-1.37 2.57 2.57 0 0 0 .3-1.17 2.53 2.53 0 1 0-2.53 2.53 2.73 2.73 0 0 0 .5 0A19.68 19.68 0 0 0 63.41 64h9.45a26.79 26.79 0 1 1 0-28h-9.1a19.69 19.69 0 0 0-30.19 2.5 2.53 2.53 0 1 0 2.48 2.5 2.47 2.47 0 0 0-.53-1.53 17.53 17.53 0 0 1 27.29-1.33H98.6a50 50 0 1 0 0 23.66zm-43.45-2.54a1.23 1.23 0 1 1 1.23 1.23 1.24 1.24 0 0 1-1.23-1.23zM34.75 41a1.23 1.23 0 1 1-1.23-1.23A1.23 1.23 0 0 1 34.75 41zM83.6 73.42a3.7 3.7 0 0 1-.95-.14 40 40 0 1 1 0-46.56 3.7 3.7 0 0 1 .95-.14 3.86 3.86 0 1 1-3.27 1.86 37.14 37.14 0 1 0 0 43.12 3.83 3.83 0 1 1 3.27 1.86z" fill="#0080df"></path><path d="M99.87 46.27H58.16a9 9 0 1 0 0 7.46h41.71c.09-1.23.14-2.47.14-3.73s-.01-2.5-.14-3.73zM50 53.73A3.73 3.73 0 1 1 53.73 50 3.73 3.73 0 0 1 50 53.73z" fill="#f6911e"></path><path d="M81.74 30.42a1.87 1.87 0 1 0 1.86-1.87 1.87 1.87 0 0 0-1.86 1.87zM83.6 67.71a1.87 1.87 0 1 0 1.87 1.87 1.87 1.87 0 0 0-1.87-1.87z" fill="#0080df"></path></svg></svg> <!----></g></g> <g transform="translate(67,1.0767478942871094)"><g data-gra="path-name" fill-rule="" class="tp-name iconsvg-namesvg" transform="translate(0,0)"><g transform="scale(1)"><g><path d="M17.4-34.98L17.4-34.98Q18.28-34.63 20.39-33.05L20.39-33.05 33.4-33.05Q33.57-33.05 34.1-33.93L34.1-33.93Q34.8-34.8 34.8-34.8L34.8-34.8Q36.04-34.28 38.32-32.34L38.32-32.34Q36.56-30.94 36.56-30.76L36.56-30.76 36.74-16.17Q35.33-15.12 33.93-15.12L33.93-15.12 33.93-17.93 19.86-17.93 19.86-15.64Q18.63-14.59 17.05-14.41L17.05-14.41Q17.23-21.62 17.4-34.98ZM4.92-34.1L5.27-34.63Q10.2-32.7 11.78-30.94L11.78-30.94Q12.48-28.3 10.02-27.07L10.02-27.07Q9.67-27.25 9.14-28.48L9.14-28.48Q7.56-31.99 4.92-34.1L4.92-34.1ZM33.93-31.99L21.45-31.99Q19.69-32.17 19.86-30.94L19.86-30.94 19.86-26.19 33.93-26.19 33.93-31.99ZM15.47-30.76L15.47-30.76 16-30.41Q7.91-7.73 8.26-7.56L8.26-7.56Q7.91-4.92 8.26 0.35L8.26 0.35Q8.44 3.16 8.26 3.87L8.26 3.87Q7.91 5.27 6.15 4.57L6.15 4.57Q4.39 3.69 4.75 2.29L4.75 2.29Q4.75 1.93 5.1 0.88L5.1 0.88Q6.5-5.27 5.8-6.33L5.8-6.33Q5.1-8.09 1.93-8.44L1.93-8.44 1.93-8.79Q5.63-8.79 6.15-9.32L6.15-9.32Q6.86-10.02 13.01-24.96L13.01-24.96Q14.59-28.83 15.47-30.76ZM1.58-24.79L1.93-25.14Q6.86-23.38 7.91-21.62L7.91-21.62Q8.96-18.63 6.33-17.4L6.33-17.4Q6.15-17.58 5.63-18.81L5.63-18.81Q4.04-23.03 1.58-24.79L1.58-24.79ZM33.93-25.14L19.86-25.14 19.86-18.98 33.93-18.98 33.93-25.14ZM14.59-14.41L14.59-14.41 17.75-12.48 35.68-12.48Q35.86-12.48 37.09-14.24L37.09-14.24Q40.08-12.3 40.61-11.43L40.61-11.43Q40.61-11.43 39.9-10.9L39.9-10.9Q38.67-10.02 38.67-9.84L38.67-9.84 38.67 1.76 39.02 1.76 40.96-0.35 43.59 2.46 43.59 2.81 11.95 2.81 10.02 2.99 9.32 1.76 14.06 1.76Q14.41-4.22 14.59-14.41ZM21.45 1.76L21.45-11.43 18.28-11.43Q16.7-11.6 16.88-10.02L16.88-10.02 16.88 1.76 21.45 1.76ZM28.65-11.43L24.08-11.43 24.08 1.76 28.65 1.76 28.65-11.43ZM36.04 1.76L36.04-11.43 31.29-11.43 31.29 1.76 36.04 1.76ZM56.6-36.39L56.6-36.39Q60.12-34.98 61.17-34.45L61.17-34.45Q61.17-34.45 60.64-33.93L60.64-33.93Q59.59-33.22 59.59-33.05L59.59-33.05Q59.77-8.09 56.95-4.04L56.95-4.04Q54.32 0.7 46.76 4.92L46.76 4.92 46.23 4.22Q59.06-1.23 56.6-31.64L56.6-31.64Q56.6-34.8 56.6-36.39ZM80.16-36.04L80.16-36.04Q83.67-34.8 84.55-34.1L84.55-34.1Q84.55-34.1 84.02-33.57L84.02-33.57Q83.14-32.7 83.14-32.52L83.14-32.52 83.67 2.99Q82.79 4.04 80.33 4.39L80.33 4.39Q80.33 1.58 80.33-11.07L80.33-11.07Q80.16-30.06 80.16-36.04ZM68.55-34.98L68.55-34.98Q72.25-33.57 72.77-32.87L72.77-32.87Q72.77-32.87 72.25-32.34L72.25-32.34Q71.37-31.46 71.37-31.29L71.37-31.29 71.37-1.58Q70.84-0.88 68.38-0.18L68.38-0.18Q68.55-9.49 68.55-19.51L68.55-19.51Q68.73-29 68.55-34.98ZM51.33-24.43L51.33-24.43 51.86-24.61Q53.79-17.05 51.68-14.41L51.68-14.41Q50.27-12.66 48.52-13.01L48.52-13.01Q46.76-13.54 47.99-15.29L47.99-15.29Q48.16-15.47 48.34-15.64L48.34-15.64Q51.15-18.28 51.33-24.43ZM60.64-23.73L61.35-24.08Q65.74-19.51 65.92-18.28L65.92-18.28Q65.74-14.41 63.28-14.59L63.28-14.59Q62.75-14.77 62.75-16.35L62.75-16.35Q62.75-20.39 60.64-23.73L60.64-23.73ZM72.77-23.73L73.3-24.26Q77.34-20.21 78.05-18.11L78.05-18.11Q77.52-14.77 75.41-14.77L75.41-14.77Q75.23-14.94 75.06-16.17L75.06-16.17Q74.71-20.39 72.77-23.73L72.77-23.73ZM117.42-25.49L117.42-37.27Q121.46-35.51 121.64-35.51L121.64-35.51Q121.46-35.33 120.76-34.63L120.76-34.63Q120.06-33.93 120.06-33.93L120.06-33.93 120.06-25.49 127.09-25.49 129.2-28.13 133.24-24.96 133.07-24.43 120.06-24.43 120.06-14.06 124.63-14.06Q125.68-15.64 125.86-15.82L125.86-15.82Q126.04-15.82 129.2-13.36L129.2-13.36Q129.2-13.18 127.62-11.78L127.62-11.78 127.79 3.69Q126.74 4.75 124.98 4.92L124.98 4.92 124.98 0.53 112.68 0.53 112.68 4.39Q111.62 5.45 109.69 5.63L109.69 5.63Q109.86 0 110.04-5.8L110.04-5.8Q110.04-11.25 109.86-15.47L109.86-15.47Q110.39-15.29 111.27-14.77L111.27-14.77Q112.5-14.24 113.03-14.06L113.03-14.06 117.42-14.06 117.42-24.43 110.57-24.43 108.28-23.91 107.23-25.49 117.42-25.49ZM103.36-30.94L103.36-30.94Q104.41-30.41 106.7-28.83L106.7-28.83Q106.7-28.83 106.35-28.65L106.35-28.65Q105.12-27.42 105.12-27.25L105.12-27.25Q104.94-17.23 105.29-7.56L105.29-7.56Q104.06-6.33 102.48-6.33L102.48-6.33 102.48-9.14 96.15-9.14 96.15-4.39Q94.92-3.16 93.69-3.34L93.69-3.34 94.04-30.94 97.03-29 101.95-29Q102.13-29 103.36-30.94ZM102.66-10.2L102.66-27.95 97.73-27.95Q95.98-28.13 96.15-26.37L96.15-26.37 96.15-10.2 102.66-10.2ZM124.98-0.53L124.98-13.18 114.26-13.18Q112.68-13.36 112.68-11.43L112.68-11.43 112.68-0.53 124.98-0.53ZM158.91-36.91L158.91-36.91 162.42-34.28Q162.42-34.28 162.07-34.28L162.07-34.28Q160.66-34.1 158.38-31.64L158.38-31.64 165.59-31.64Q166.11-31.99 167.17-33.22L167.17-33.22 170.51-30.23Q170.33-30.23 169.98-30.23L169.98-30.23Q167.7-30.23 164.18-27.07L164.18-27.07 170.51-27.07Q170.51-27.07 171.04-27.77L171.04-27.77Q171.56-28.65 171.74-28.48L171.74-28.48 174.9-26.19Q174.9-26.02 173.67-25.31L173.67-25.31Q173.32-24.96 173.32-24.96L173.32-24.96 173.5-16.17Q172.62-15.47 170.86-15.12L170.86-15.12 170.86-16.7 155.57-16.7 155.57-15.29Q155.39-15.29 155.21-15.12L155.21-15.12Q153.63-14.59 153.11-14.59L153.11-14.59Q153.11-19.86 153.28-27.07L153.28-27.07Q152.23-26.19 149.94-24.79L149.94-24.79Q149.24-24.08 148.89-23.91L148.89-23.91 148.54-24.43Q154.51-29.36 158.91-36.91ZM138.34-31.29L138.34-31.29Q138.52-31.29 139.92-30.59L139.92-30.59Q141.33-29.88 141.68-29.71L141.68-29.71 144.84-29.71Q146.07-31.29 146.43-31.29L146.43-31.29 149.41-28.65 148.01-27.6 148.01-8.44Q146.95-7.03 145.37-7.03L145.37-7.03 145.37-10.9 140.8-10.9 140.8-5.63Q139.57-4.39 137.99-4.22L137.99-4.22Q137.99-4.39 138.34-31.29ZM162.95-27.07L165.59-30.94 157.68-30.94 154.34-27.77 155.39-27.07 162.95-27.07ZM145.37-11.95L145.37-28.65 142.91-28.65Q140.45-29 140.8-27.25L140.8-27.25 140.8-11.95 145.37-11.95ZM161.72-26.19L156.8-26.19Q155.39-26.19 155.57-25.14L155.57-25.14 155.57-22.32 161.72-22.32 161.72-26.19ZM170.86-26.19L164-26.19 164-22.32 170.86-22.32 170.86-26.19ZM161.72-21.62L155.57-21.62 155.57-17.58 161.72-17.58 161.72-21.62ZM170.86-21.62L164-21.62 164-17.58 170.86-17.58 170.86-21.62ZM172.79-13.54L174.9-15.82 178.24-12.66 178.07-12.48 152.05-12.48 149.77-11.95 148.54-13.54 172.79-13.54ZM170.68-11.07L170.68-11.07 173.85-8.61Q173.85-8.61 173.14-7.91L173.14-7.91Q172.27-7.21 172.09-7.03L172.09-7.03Q172.27-0.18 172.27 4.04L172.27 4.04Q171.74 4.92 169.45 5.45L169.45 5.45 169.45 2.11 156.45 2.11 156.45 4.22Q155.21 4.92 153.63 5.27L153.63 5.27 153.81-10.9 156.62-9.32 169.1-9.32Q170.33-11.07 170.68-11.07ZM156.45-6.86L156.45-6.86 156.45-4.04 169.45-4.04 169.45-8.61 158.38-8.61Q156.09-8.79 156.45-6.86ZM169.45-3.34L156.45-3.34 156.45 1.23 169.45 1.23 169.45-3.34Z" transform="translate(-1.5799999237060547, 37.27000045776367)"></path></g> <!----> <!----> <!----> <!----> <!----> <!----> <!----></g></g> <g data-gra="path-slogan" fill-rule="" class="tp-slogan iconsvg-slogansvg" fill="#333" transform="translate(5,48.900001525878906)"><rect x="0" height="1" y="3.9750003814697266" width="31.720001220703125"></rect> <rect height="1" y="3.9750003814697266" width="31.720001220703125" x="134.94000244140625"></rect> <g transform="translate(34.720001220703125,0)"><g transform="scale(1)"><path d="M5.67-7.13L5.63-7.13L3.66 0L2.44 0L0.19-8.58L1.41-8.58L3.05-1.59L3.09-1.59L5.02-8.58L6.28-8.58L8.20-1.59L8.25-1.59L9.84-8.58L11.11-8.58L8.86 0L7.64 0L5.67-7.13ZM13.50-1.03L18.66-1.03L18.66 0L12.33 0L12.33-8.58L18.56-8.58L18.56-7.59L13.50-7.59L13.50-4.92L18.19-4.92L18.19-3.89L13.50-3.89L13.50-1.03ZM21.56-8.58L25.88-1.64L25.88-8.58L27-8.58L27 0L25.69 0L21.33-6.94L21.28-6.94L21.28 0L20.16 0L20.16-8.58L21.56-8.58ZM29.63-1.03L34.92-1.03L34.92 0L28.17 0L28.17-0.94L33.42-7.59L28.55-7.59L28.55-8.58L34.92-8.58L34.92-7.59L29.63-1.03ZM37.22-5.06L41.72-5.06L41.72-8.58L42.89-8.58L42.89 0L41.72 0L41.72-3.98L37.22-3.98L37.22 0L36.05 0L36.05-8.58L37.22-8.58L37.22-5.06ZM51.47-4.27L51.47-4.27Q51.28-7.64 48.47-7.83L48.47-7.83Q45.61-7.69 45.47-4.27L45.47-4.27Q45.61-0.94 48.47-0.80L48.47-0.80Q51.28-0.98 51.47-4.27ZM52.64-4.27L52.64-4.27Q52.36 0 48.47 0.14L48.47 0.14Q44.53 0 44.25-4.27L44.25-4.27Q44.48-8.72 48.47-8.81L48.47-8.81Q52.36-8.67 52.64-4.27ZM59.67-3.19L59.67-8.58L60.84-8.58L60.84-3.05Q60.70 0.05 57.33 0.14L57.33 0.14Q54.19 0.05 54.05-2.86L54.05-2.86L54.05-8.58L55.22-8.58L55.22-3.19Q55.27-0.84 57.38-0.80L57.38-0.80Q59.67-0.84 59.67-3.19L59.67-3.19ZM72.38-3.61L69.75-3.61L69.75-4.59L73.50-4.59L73.50 0L72.75 0L72.47-1.08Q71.48 0.09 69.66 0.14L69.66 0.14Q67.92 0.14 66.98-0.75L66.98-0.75Q65.58-2.06 65.63-4.36L65.63-4.36Q65.95-8.63 69.70-8.81L69.70-8.81Q72.89-8.63 73.36-6L73.36-6L72.23-6Q71.77-7.78 69.66-7.83L69.66-7.83Q66.98-7.64 66.84-4.31L66.84-4.31Q66.84-0.75 69.70-0.75L69.70-0.75Q70.73-0.75 71.48-1.31L71.48-1.31Q72.42-2.06 72.38-3.61L72.38-3.61ZM80.95-3.19L80.95-8.58L82.13-8.58L82.13-3.05Q81.98 0.05 78.61 0.14L78.61 0.14Q75.47 0.05 75.33-2.86L75.33-2.86L75.33-8.58L76.50-8.58L76.50-3.19Q76.55-0.84 78.66-0.80L78.66-0.80Q80.95-0.84 80.95-3.19L80.95-3.19ZM83.91-8.58L85.08-8.58L85.08-1.03L89.44-1.03L89.44 0L83.91 0L83.91-8.58ZM96.23-3.19L96.23-8.58L97.41-8.58L97.41-3.05Q97.27 0.05 93.89 0.14L93.89 0.14Q90.75 0.05 90.61-2.86L90.61-2.86L90.61-8.58L91.78-8.58L91.78-3.19Q91.83-0.84 93.94-0.80L93.94-0.80Q96.23-0.84 96.23-3.19L96.23-3.19Z" transform="translate(-0.1875, 8.8125)"></path></g></g></g></g></g><defs v-gra="od"></defs></svg>